<svg viewBox="0 0 78 78" xmlns="http://www.w3.org/2000/svg" xmlns:xlink="http://www.w3.org/1999/xlink"><defs><radialGradient id="a" cx="61.429%" cy="25.714%" r="50%"><stop offset="0" stop-color="#fff" stop-opacity=".5"/><stop offset="1" stop-color="#fff" stop-opacity=".01"/></radialGradient><path id="b" d="m0 35c0-19 16-35 35-35s35 16 35 35-16 35-35 35-35-16-35-35z"/><filter id="c" y="-7.1%"><feOffset dx="0" dy="2" in="SourceAlpha" result="shadowOffsetOuter1"/><feGaussianBlur in="shadowOffsetOuter1" result="shadowBlurOuter1" stdDeviation="2"/><feColorMatrix in="shadowBlurOuter1" type="matrix" values="0 0 0 0 0   0 0 0 0 0   0 0 0 0 0  0 0 0 0.5 0"/></filter><filter id="d" y="-7.1%"><feGaussianBlur in="SourceAlpha" result="shadowBlurInner1" stdDeviation="3"/><feOffset dx="0" dy="0" in="shadowBlurInner1" result="shadowOffsetInner1"/><feComposite in="shadowOffsetInner1" in2="SourceAlpha" k2="-1" k3="1" operator="arithmetic" result="shadowInnerInner1"/><feColorMatrix in="shadowInnerInner1" result="shadowMatrixInner1" type="matrix" values="0 0 0 0 0   0 0 0 0 0   0 0 0 0 0  0 0 0 0.5 0"/><feGaussianBlur in="SourceAlpha" result="shadowBlurInner2" stdDeviation="1.5"/><feOffset dx="0" dy="0" in="shadowBlurInner2" result="shadowOffsetInner2"/><feComposite in="shadowOffsetInner2" in2="SourceAlpha" k2="-1" k3="1" operator="arithmetic" result="shadowInnerInner2"/><feColorMatrix in="shadowInnerInner2" result="shadowMatrixInner2" type="matrix" values="0 0 0 0 0   0 0 0 0 0   0 0 0 0 0  0 0 0 0.5 0"/><feMerge><feMergeNode in="shadowMatrixInner1"/><feMergeNode in="shadowMatrixInner2"/></feMerge></filter><linearGradient id="e"><stop offset="0" stop-color="#fff"/><stop offset="1" stop-color="#fff" stop-opacity="0"/></linearGradient><linearGradient id="f" x1="70.309%" x2="31.255%" xlink:href="#e" y1="29.692%" y2="68.746%"/><linearGradient id="g" x1="31.873%" x2="42.735%" xlink:href="#e" y1="64.349%" y2="53.485%"/><linearGradient id="h" x1="68.127%" x2="57.265%" xlink:href="#e" y1="35.65%" y2="46.515%"/></defs><g transform="translate(4 2)"><use filter="url(#c)" xlink:href="#b"/><use fill="#e02020" xlink:href="#b"/><use fill="url(#a)" xlink:href="#b"/><use filter="url(#d)" xlink:href="#b"/></g><g transform="translate(6 3)"><path d="m0 34c0-17.9143 15.0857-33 33-33s33 15.0857 33 33-15.0857 33-33 33-33-15.0857-33-33z" opacity=".15" stroke="#fff"/><g><path d="m4 33c0-17.9143 12.0857-33 30-33s30 15.0857 30 33-12.0857 33-30 33-30-15.0857-30-33z" fill="#fff" opacity=".075"/><path d="m59.527407 32.932048c2.9447685.5618795 5.9665205-2.4598725 5.404641-5.404641-2.5240588-13.2287632-13.2319625-23.93616701-26.4609256-26.45952589-2.9439687-.56147959-5.9647209 2.45927262-5.4032413 5.4032413 2.5233589 13.22896309 13.2307627 23.93686679 26.4595259 26.46092559z" fill="url(#f)" opacity=".35"/><path d="m1 40c2.48009189 12.9990176 13.0014736 23.5204646 26 26-18.6954879-9.1467436-24.89669999-20.3831976-26-26z" fill="url(#g)" opacity=".5"/><path d="m65 28c-2.4799937-12.9990667-13.0014736-23.52055348-26-26 18.6954879 9.1467782 24.8967 20.3832746 26 26z" fill="url(#h)" opacity=".65"/></g></g></svg>